<svg width="64" height="64" viewBox="0 0 64 64" fill="none" xmlns="http://www.w3.org/2000/svg">
  <!-- Background -->
  <rect width="64" height="64" rx="12" fill="url(#gradient)"/>
  
  <!-- Gradient definition -->
  <defs>
    <linearGradient id="gradient" x1="0%" y1="0%" x2="100%" y2="100%">
      <stop offset="0%" style="stop-color:#8B5CF6;stop-opacity:1" />
      <stop offset="100%" style="stop-color:#EC4899;stop-opacity:1" />
    </linearGradient>
  </defs>
  
  <!-- Broom icon -->
  <g transform="translate(12, 12)">
    <!-- Broom handle -->
    <rect x="20" y="8" width="4" height="32" rx="2" fill="white" opacity="0.9"/>
    
    <!-- Broom bristles -->
    <path d="M8 40 L44 40 L42 48 L10 48 Z" fill="white" opacity="0.8"/>
    
    <!-- Broom bristle details -->
    <path d="M12 40 L14 44 M16 40 L18 44 M20 40 L22 44 M24 40 L26 44 M28 40 L30 44 M32 40 L34 44 M36 40 L38 44 M40 40 L42 44" 
          stroke="white" stroke-width="1" opacity="0.6"/>
    
    <!-- Handle grip -->
    <rect x="18" y="12" width="8" height="8" rx="4" fill="white" opacity="0.7"/>
  </g>
</svg> 